<svg class="svg--basket" viewBox="0 0 41 34" version="1.1" xmlns="http://www.w3.org/2000/svg" xmlns:xlink="http://www.w3.org/1999/xlink">
    <!-- Generator: Sketch 53.2 (72643) - https://sketchapp.com -->
    <title>basket</title>
    <desc>Created with Sketch.</desc>
    <g id="Symbols" stroke="none" stroke-width="1" fill="none" fill-rule="evenodd">
        <g id="header-&amp;-nav" transform="translate(-1545.000000, -262.000000)" fill="var(--grey-font-color)">
            <g transform="translate(-1.000000, -3.000000)" id="basket">
                <path d="M1587,276.834455 L1546,276.834455 L1546,279.820513 L1547.09846,279.820513 C1548.01071,279.820513 1548.84267,280.350564 1549.24412,281.187487 L1556.25,299 L1576.75,299 L1583.75758,281.190974 C1584.15563,280.352308 1584.991,279.820513 1585.90325,279.820513 L1587,279.820513 L1587,276.834455 Z M1582,279 L1581.96998,279.082 L1575.21951,297 L1557.77861,297 L1551.03002,279.078 L1551,279 L1582,279 Z M1574.17532,274.714286 L1579.11538,274.714286 L1571.06015,265.578971 C1570.71916,265.194286 1570.27194,265 1569.82471,265 C1568.77432,265 1568.07692,265.981143 1568.07692,266.9992 C1568.07692,267.484914 1568.23457,267.9784 1568.58926,268.380571 L1574.17532,274.714286 Z M1553.88462,274.714286 L1561.93985,265.578971 C1562.28084,265.194286 1562.72806,265 1563.17529,265 C1564.22568,265 1564.92308,265.981143 1564.92308,266.9992 C1564.92308,267.484914 1564.76543,267.9784 1564.41074,268.380571 L1558.82468,274.714286 L1553.88462,274.714286 Z"></path>
            </g>
        </g>
    </g>
</svg>