<svg class="svg--tag" viewBox="0 0 24 24" version="1.1" xmlns="http://www.w3.org/2000/svg" xmlns:xlink="http://www.w3.org/1999/xlink">
    <!-- Generator: Sketch 51.2 (57519) - http://www.bohemiancoding.com/sketch -->
    <title>tag</title>
    <desc>Created with Sketch.</desc>
    <defs></defs>
    <g id="antiques" stroke="none" stroke-width="1" fill="none" fill-rule="evenodd">
        <g id="process-page" transform="translate(-2042.000000, -787.000000)" fill="var(--grey-font-color)" fill-rule="nonzero">
            <g id="tag-tab" transform="translate(2027.000000, 735.000000)">
                <g id="tag" transform="translate(27.000000, 64.000000) scale(-1, 1) translate(-27.000000, -64.000000) translate(15.000000, 52.000000)">
                    <path d="M9.77652914,0 L2,0 C0.8954305,2.02906125e-16 -1.3527075e-16,0.8954305 0,2 L-4.4408921e-16,9.78057288 C-3.79129905e-16,10.3110059 0.210713681,10.8197137 0.585786438,11.1947864 L11.9771198,22.5854531 C12.7580382,23.3663715 14.0241111,23.3665207 14.8052136,22.5857864 L22.5857336,14.8101608 C23.3669663,14.0292963 23.3672647,12.7629664 22.5864003,11.9817337 C22.5863068,11.9816402 22.5862133,11.9815467 22.5861198,11.9814531 L11.1907955,0.585839226 C10.8157184,0.210734176 10.306988,1.23482392e-15 9.77652914,1.33226763e-15 Z M6.414,6.414 C5.633,7.195 4.368,7.195 3.585,6.415 C2.804,5.632 2.804,4.367 3.585,3.586 C4.367,2.804 5.633,2.805 6.414,3.585 C7.196,4.367 7.195,5.632 6.414,6.414 Z" id="Shape"></path>
                </g>
            </g>
        </g>
    </g>
</svg>